# xmcd
#
# Track frame offsets:
#	150
#	12777
#	25667
#	39827
#	54482
#	69220
#	82497
#	95427
#	109815
#	124512
#	138565
#	153657
#	168157
#	181727
#	195845
#	206315
#	220207
#	233012
#	247880
#	261472
#	274817
#	287277
#	301995
#	315590
#
# Disc length: 4394 seconds
#
# Revision: 1
# Processed by: cddbd v1.5PL3 Copyright (c) Steve Scherf et al.
# Submitted via: audiograbber 1.81.03
#
DISCID=3b112818
DTITLE=Tampa Red - Complete Recorded Works in Chronological Order Vol. 03
DYEAR=1929
DGENRE=Blues
TTITLE0=I Wonder Where My Easy Rider's Gone? (Hokum Jug Band)
TTITLE1=Come on Mama, Do That Dance (Hokum Jug Band)
TTITLE2=Friendless Blues
TTITLE3=Mama don't Allow no Easy Riders Here (Hokum Jug Band)
TTITLE4=Saturday Night Scrontch (Hokum Jug Band)
TTITLE5=Mama don't Allow no Easy Riders Here
TTITLE6=Strewin' Your Mess
TTITLE7=Dying Mercy Blues
TTITLE8=Whiskey Drinkin' Blues (Jenny Pope, vcl.)
TTITLE9=Doggin' Me Around Blues (Jenny Pope, vcl.)
TTITLE10=Worried Man Blues
TTITLE11=Mrs. Baker's Blues
TTITLE12=Corrine Corrina
TTITLE13=Kunjine Baby
TTITLE14=That Stuff You Sell
TTITLE15=Station Time Blues
TTITLE16=Moanin' Heart Blues (gtr solo)
TTITLE17=Chicago Moan Blues (gtr solo)
TTITLE18=Black Hearted Blues
TTITLE19=But they got it Fixed Right On
TTITLE20=Corinne Corinna No. 2
TTITLE21=The Dirty Dozen No. 2
TTITLE22=I.C. Moan Blues
TTITLE23=Cryin' Shame Blues
EXTD=DOCD- 5075  9 July 1929 to June 1930
EXTT0=
EXTT1=
EXTT2=
EXTT3=
EXTT4=
EXTT5=
EXTT6=
EXTT7=
EXTT8=
EXTT9=
EXTT10=
EXTT11=
EXTT12=
EXTT13=
EXTT14=
EXTT15=
EXTT16=
EXTT17=
EXTT18=
EXTT19=
EXTT20=
EXTT21=
EXTT22=
EXTT23=
PLAYORDER=
